<svg width="246" height="94" viewBox="0 0 246 94" fill="none" xmlns="http://www.w3.org/2000/svg">
<g clip-path="url(#clip0_1_2)">
<path d="M38.921 20.665C51.4277 14.9239 64.2957 10.0051 77.443 5.94C78.3983 7.62067 79.2826 9.326 80.096 11.056C81.884 10.502 83.6783 9.96533 85.479 9.446C83.8266 6.12529 81.8727 2.96335 79.642 0C63.5186 3.93136 47.9554 9.88064 33.321 17.707C33.635 21.3509 34.2749 24.9593 35.233 28.489C36.9263 27.689 38.6263 26.9033 40.333 26.132C39.8003 24.3373 39.3296 22.515 38.921 20.665Z" fill="#4A7175"/>
<path d="M102.631 6.738C74.0854 13.6029 46.5478 24.1319 20.704 38.063C21.8315 57.4031 28.9162 75.9204 40.986 91.074C69.5329 84.2085 97.0717 73.6791 122.917 59.748C121.775 40.4107 114.69 21.8976 102.631 6.738ZM117.617 56.8C93.632 68.5476 68.6339 78.1025 42.928 85.348C34.1252 71.9788 28.3439 56.8506 25.987 41.018C29.9317 39.0847 33.9023 37.218 37.899 35.418L44.75 53.385C43.227 54.428 42.41 55.8 42.818 56.885L45.664 55.797L49.415 54.364L52.258 53.273C51.849 52.195 50.326 51.718 48.495 51.956L41.544 33.776C55.4919 27.5993 69.7504 22.149 84.262 17.447L90.942 34.922C89.416 35.968 88.595 37.343 89.01 38.422L98.452 34.81C98.037 33.728 96.52 33.252 94.676 33.493L88.07 16.227C92.242 14.9263 96.442 13.673 100.67 12.467C109.479 25.8354 115.264 40.9656 117.62 56.801L117.617 56.8Z" fill="#EB6440"/>
<path d="M113.555 70.343C114.708 69.9026 115.68 69.0896 116.317 68.0333C116.955 66.9771 117.221 65.738 117.074 64.513C113.971 66.099 110.847 67.639 107.702 69.133C108.46 69.8721 109.415 70.3788 110.452 70.5932C111.489 70.8076 112.566 70.7208 113.555 70.343Z" fill="#4A7175"/>
<path d="M54.998 92.732C55.9856 92.3516 56.8437 91.6966 57.4712 90.8443C58.0986 89.992 58.4691 88.978 58.539 87.922C55.1997 88.9133 51.845 89.8513 48.475 90.736C49.1833 91.7493 50.2102 92.4966 51.3922 92.859C52.5742 93.2214 53.8434 93.1781 54.998 92.736V92.732Z" fill="#4A7175"/>
<path d="M49.208 59.466C51.816 58.466 53.48 56.485 52.926 55.036L43.484 58.645C44.042 60.094 46.608 60.461 49.208 59.466Z" fill="#EB6440"/>
<path d="M95.394 40.996C98.005 39.996 99.666 38.018 99.112 36.569L89.673 40.178C90.227 41.64 92.789 42 95.394 40.996Z" fill="#EB6440"/>
<path d="M28.105 75.302L16.158 75.495L11.944 79.848L30.375 79.548C29.577 78.154 28.827 76.731 28.105 75.302Z" fill="#497174" fill-opacity="0.5"/>
<path d="M31.431 81.322L10.183 81.663L5.97198 86.016L34.122 85.562C33.16 84.168 32.287 82.748 31.431 81.322Z" fill="#497174" fill-opacity="0.75"/>
<path d="M38.472 91.556C37.381 90.168 36.35 88.756 35.346 87.326L4.214 87.826L0 92.184L38.472 91.566V91.556Z" fill="#4A7175"/>
<path d="M166.022 59.2V78H156.262C154.556 78 153.156 77.88 152.062 77.64C150.996 77.4 150.182 76.9467 149.622 76.28C149.062 75.6133 148.676 74.6667 148.462 73.44C148.249 72.2133 148.142 70.6 148.142 68.6C148.142 66.6 148.249 64.9867 148.462 63.76C148.676 62.5333 149.062 61.5867 149.622 60.92C150.182 60.2533 150.996 59.8 152.062 59.56C153.156 59.32 154.556 59.2 156.262 59.2H166.022ZM162.822 62.8H154.302C153.316 62.8 152.609 62.9733 152.182 63.32C151.756 63.6667 151.542 64.24 151.542 65.04V72.16C151.542 72.96 151.756 73.5333 152.182 73.88C152.609 74.2267 153.316 74.4 154.302 74.4H162.822V62.8ZM154.782 54.4C154.516 54.4 154.209 54.28 153.862 54.04C153.516 53.8 153.209 53.5067 152.942 53.16C152.702 52.7867 152.582 52.4667 152.582 52.2C152.582 51.9067 152.702 51.6 152.942 51.28C153.209 50.9333 153.516 50.64 153.862 50.4C154.209 50.1333 154.516 50 154.782 50C155.076 50 155.382 50.1333 155.702 50.4C156.049 50.64 156.342 50.9333 156.582 51.28C156.849 51.6 156.982 51.9067 156.982 52.2C156.982 52.4667 156.849 52.7733 156.582 53.12C156.342 53.4667 156.049 53.7733 155.702 54.04C155.356 54.28 155.049 54.4 154.782 54.4ZM160.542 54.4C160.276 54.4 159.969 54.28 159.622 54.04C159.276 53.8 158.969 53.5067 158.702 53.16C158.462 52.7867 158.342 52.4667 158.342 52.2C158.342 51.9067 158.462 51.6 158.702 51.28C158.969 50.9333 159.276 50.64 159.622 50.4C159.969 50.1333 160.276 50 160.542 50C160.836 50 161.142 50.1333 161.462 50.4C161.809 50.64 162.102 50.9333 162.342 51.28C162.609 51.6 162.742 51.9067 162.742 52.2C162.742 52.4667 162.609 52.7733 162.342 53.12C162.102 53.4667 161.809 53.7733 161.462 54.04C161.116 54.28 160.809 54.4 160.542 54.4ZM178.416 74.4H183.216V78H178.416V74.4ZM172.496 88.36L171.136 85.56C172.176 85.0533 172.989 84.48 173.576 83.84C174.189 83.2 174.616 82.4133 174.856 81.48C175.122 80.5467 175.256 79.3867 175.256 78V59.2H178.456V78C178.456 79.76 178.256 81.28 177.856 82.56C177.456 83.8667 176.816 84.9867 175.936 85.92C175.056 86.8533 173.909 87.6667 172.496 88.36ZM204.358 74.4H209.158V78H204.358V74.4ZM181.598 74.4H187.998C187.865 73.6533 187.758 72.76 187.678 71.72C187.625 70.68 187.598 69.3067 187.598 67.6C187.598 65.8667 187.718 64.44 187.958 63.32C188.198 62.1733 188.625 61.28 189.238 60.64C189.852 59.9733 190.705 59.5067 191.798 59.24C192.892 58.9467 194.292 58.8 195.998 58.8C197.465 58.8 198.825 58.8933 200.078 59.08C201.332 59.2667 202.758 59.5867 204.358 60.04V78H181.598V74.4ZM199.318 74.4C200.012 74.4 200.492 74.2533 200.758 73.96C201.025 73.6667 201.158 73.1467 201.158 72.4V62.48H192.838C192.118 62.48 191.625 62.6267 191.358 62.92C191.118 63.2133 190.998 63.8 190.998 64.68V74.4H199.318ZM193.118 54.4C192.852 54.4 192.545 54.28 192.198 54.04C191.852 53.8 191.545 53.5067 191.278 53.16C191.038 52.7867 190.918 52.4667 190.918 52.2C190.918 51.9067 191.038 51.6 191.278 51.28C191.545 50.9333 191.852 50.64 192.198 50.4C192.545 50.1333 192.852 50 193.118 50C193.412 50 193.718 50.1333 194.038 50.4C194.385 50.64 194.678 50.9333 194.918 51.28C195.185 51.6 195.318 51.9067 195.318 52.2C195.318 52.4667 195.185 52.7733 194.918 53.12C194.678 53.4667 194.385 53.7733 194.038 54.04C193.692 54.28 193.385 54.4 193.118 54.4ZM198.878 54.4C198.612 54.4 198.305 54.28 197.958 54.04C197.612 53.8 197.305 53.5067 197.038 53.16C196.798 52.7867 196.678 52.4667 196.678 52.2C196.678 51.9067 196.798 51.6 197.038 51.28C197.305 50.9333 197.612 50.64 197.958 50.4C198.305 50.1333 198.612 50 198.878 50C199.172 50 199.478 50.1333 199.798 50.4C200.145 50.64 200.438 50.9333 200.678 51.28C200.945 51.6 201.078 51.9067 201.078 52.2C201.078 52.4667 200.945 52.7733 200.678 53.12C200.438 53.4667 200.145 53.7733 199.798 54.04C199.452 54.28 199.145 54.4 198.878 54.4ZM217.175 74.4H221.975V78H207.575V74.4H213.975V59.2H217.175V74.4ZM215.575 54.4C215.308 54.4 215.002 54.28 214.655 54.04C214.308 53.8 214.002 53.5067 213.735 53.16C213.495 52.7867 213.375 52.4667 213.375 52.2C213.375 51.9067 213.495 51.6 213.735 51.28C214.002 50.9333 214.308 50.64 214.655 50.4C215.002 50.1333 215.308 50 215.575 50C215.868 50 216.175 50.1333 216.495 50.4C216.842 50.64 217.135 50.9333 217.375 51.28C217.642 51.6 217.775 51.9067 217.775 52.2C217.775 52.4667 217.642 52.7733 217.375 53.12C217.135 53.4667 216.842 53.7733 216.495 54.04C216.148 54.28 215.842 54.4 215.575 54.4ZM220.387 78V74.4H226.788V59.2H229.988V78H220.387ZM228.388 85.6C228.121 85.6 227.814 85.48 227.468 85.24C227.121 85 226.814 84.6933 226.548 84.32C226.308 83.9733 226.188 83.6667 226.188 83.4C226.188 83.1067 226.308 82.7867 226.548 82.44C226.814 82.12 227.121 81.8267 227.468 81.56C227.814 81.32 228.121 81.2 228.388 81.2C228.681 81.2 228.988 81.32 229.308 81.56C229.654 81.8267 229.948 82.12 230.188 82.44C230.454 82.7867 230.588 83.1067 230.588 83.4C230.588 83.6667 230.454 83.9733 230.188 84.32C229.948 84.6667 229.654 84.96 229.308 85.2C228.961 85.4667 228.654 85.6 228.388 85.6Z" fill="#4A7175"/>
<path d="M167.007 15.2V34H157.247C155.54 34 154.14 33.88 153.047 33.64C151.98 33.4 151.167 32.9467 150.607 32.28C150.047 31.6133 149.66 30.6667 149.447 29.44C149.233 28.2133 149.127 26.6 149.127 24.6C149.127 22.6 149.233 20.9867 149.447 19.76C149.66 18.5333 150.047 17.5867 150.607 16.92C151.167 16.2533 151.98 15.8 153.047 15.56C154.14 15.32 155.54 15.2 157.247 15.2H167.007ZM163.807 18.8H155.287C154.3 18.8 153.593 18.9733 153.167 19.32C152.74 19.6667 152.527 20.24 152.527 21.04V28.16C152.527 28.96 152.74 29.5333 153.167 29.88C153.593 30.2267 154.3 30.4 155.287 30.4H163.807V18.8ZM155.767 10.4C155.5 10.4 155.193 10.28 154.847 10.04C154.5 9.8 154.193 9.50666 153.927 9.16C153.687 8.78666 153.567 8.46666 153.567 8.2C153.567 7.90667 153.687 7.6 153.927 7.28C154.193 6.93333 154.5 6.64 154.847 6.4C155.193 6.13333 155.5 6 155.767 6C156.06 6 156.367 6.13333 156.687 6.4C157.033 6.64 157.327 6.93333 157.567 7.28C157.833 7.6 157.967 7.90667 157.967 8.2C157.967 8.46666 157.833 8.77333 157.567 9.12C157.327 9.46667 157.033 9.77333 156.687 10.04C156.34 10.28 156.033 10.4 155.767 10.4ZM161.527 10.4C161.26 10.4 160.953 10.28 160.607 10.04C160.26 9.8 159.953 9.50666 159.687 9.16C159.447 8.78666 159.327 8.46666 159.327 8.2C159.327 7.90667 159.447 7.6 159.687 7.28C159.953 6.93333 160.26 6.64 160.607 6.4C160.953 6.13333 161.26 6 161.527 6C161.82 6 162.127 6.13333 162.447 6.4C162.793 6.64 163.087 6.93333 163.327 7.28C163.593 7.6 163.727 7.90667 163.727 8.2C163.727 8.46666 163.593 8.77333 163.327 9.12C163.087 9.46667 162.793 9.77333 162.447 10.04C162.1 10.28 161.793 10.4 161.527 10.4ZM179.4 30.4H184.2V34H179.4V30.4ZM173.48 44.36L172.12 41.56C173.16 41.0533 173.973 40.48 174.56 39.84C175.173 39.2 175.6 38.4133 175.84 37.48C176.107 36.5467 176.24 35.3867 176.24 34V15.2H179.44V34C179.44 35.76 179.24 37.28 178.84 38.56C178.44 39.8667 177.8 40.9867 176.92 41.92C176.04 42.8533 174.893 43.6667 173.48 44.36ZM205.343 30.4H210.143V34H205.343V30.4ZM182.583 30.4H188.983C188.849 29.6533 188.743 28.76 188.663 27.72C188.609 26.68 188.583 25.3067 188.583 23.6C188.583 21.8667 188.703 20.44 188.943 19.32C189.183 18.1733 189.609 17.28 190.223 16.64C190.836 15.9733 191.689 15.5067 192.783 15.24C193.876 14.9467 195.276 14.8 196.983 14.8C198.449 14.8 199.809 14.8933 201.063 15.08C202.316 15.2667 203.743 15.5867 205.343 16.04V34H182.583V30.4ZM200.303 30.4C200.996 30.4 201.476 30.2533 201.743 29.96C202.009 29.6667 202.143 29.1467 202.143 28.4V18.48H193.823C193.103 18.48 192.609 18.6267 192.343 18.92C192.103 19.2133 191.983 19.8 191.983 20.68V30.4H200.303ZM196.983 10.4C196.716 10.4 196.409 10.28 196.063 10.04C195.716 9.8 195.409 9.50666 195.143 9.16C194.903 8.78666 194.783 8.46666 194.783 8.2C194.783 7.90667 194.903 7.6 195.143 7.28C195.409 6.93333 195.716 6.64 196.063 6.4C196.409 6.13333 196.716 6 196.983 6C197.276 6 197.583 6.13333 197.903 6.4C198.249 6.64 198.543 6.93333 198.783 7.28C199.049 7.6 199.183 7.90667 199.183 8.2C199.183 8.46666 199.049 8.77333 198.783 9.12C198.543 9.46667 198.249 9.77333 197.903 10.04C197.556 10.28 197.249 10.4 196.983 10.4ZM235.199 34C233.493 34 232.106 33.8933 231.039 33.68C229.973 33.4667 229.146 33.08 228.559 32.52C227.999 31.96 227.613 31.1867 227.399 30.2C227.186 29.2133 227.079 27.96 227.079 26.44V18.8H230.279V28.28C230.279 29.1333 230.519 29.7067 230.999 30C231.479 30.2667 232.279 30.4 233.399 30.4H238.719C238.906 29.4667 239.026 28.48 239.079 27.44C239.159 26.3733 239.199 25.1467 239.199 23.76C239.199 22.5867 239.106 21.32 238.919 19.96C238.733 18.6 238.479 17.2133 238.159 15.8L241.319 15.28C241.506 15.9733 241.679 16.8267 241.839 17.84C241.999 18.8267 242.133 19.84 242.239 20.88C242.346 21.8933 242.399 22.8133 242.399 23.64C242.399 26.28 242.199 28.36 241.799 29.88C241.399 31.3733 240.679 32.44 239.639 33.08C238.626 33.6933 237.146 34 235.199 34ZM222.159 34H218.159V30.4H223.959C225.079 30.4 225.879 30.2667 226.359 30C226.839 29.7067 227.079 29.1333 227.079 28.28V18.8H230.279V26.44C230.279 27.96 230.173 29.2133 229.959 30.2C229.773 31.1867 229.386 31.96 228.799 32.52C228.239 33.08 227.426 33.4667 226.359 33.68C225.293 33.8933 223.893 34 222.159 34ZM218.159 34H208.559V30.4H214.959V18.8H218.159V34Z" fill="#EB6440"/>
</g>
<defs>
<clipPath id="clip0_1_2">
<rect width="246" height="94" fill="white"/>
</clipPath>
</defs>
</svg>
