<svg width="420" height="420" viewBox="0 0 420 420" fill="none" xmlns="http://www.w3.org/2000/svg">
<rect width="420" height="420" rx="15" fill="#292929"/>
<path d="M53.2656 76.5312L70.8438 71.8438C70.8438 80.1771 70.974 84.8646 71.2344 85.9062C86.0781 76.0104 106.911 71.0625 133.734 71.0625C162.641 71.0625 184.255 80.1771 198.578 98.4062C212.901 116.375 220.062 141.635 220.062 174.188C220.062 203.094 213.031 227.052 198.969 246.062C184.906 265.073 163.682 274.578 135.297 274.578C130.609 274.578 111.859 273.016 79.0469 269.891C79.5677 288.901 80.6094 318.458 82.1719 358.562C79.8281 366.635 75.2708 370.672 68.5 370.672C63.8125 370.672 59.2552 368.719 54.8281 364.812C50.6615 361.167 48.0573 356.609 47.0156 351.141C47.7969 329.266 48.5781 286.688 49.3594 223.406C50.401 160.125 51.7031 111.167 53.2656 76.5312ZM74.75 112.078L77.875 233.953C92.1979 241.766 108.734 245.672 127.484 245.672C145.453 245.672 160.688 238.901 173.188 225.359C185.688 211.818 191.938 195.281 191.938 175.75C191.938 154.656 185.427 135.646 172.406 118.719C159.385 101.792 143.109 93.3281 123.578 93.3281C107.693 93.3281 91.4167 99.5781 74.75 112.078Z" fill="#6823D0"/>
<path d="M249.571 348.443L251.217 116.756C253.63 108.638 263.064 104.579 279.52 104.579C294.658 104.579 308.59 106.663 321.315 110.832C334.041 114.781 344.682 121.583 353.238 131.236C362.014 140.671 366.402 152.079 366.402 165.463C366.402 175.994 363.77 186.196 358.504 196.069C353.458 205.942 347.205 212.305 339.745 215.157C353.787 217.132 365.086 225.579 373.643 240.498C382.199 255.417 386.478 273.079 386.478 293.483C386.478 307.306 380.993 319.373 370.022 329.685C359.052 339.777 346.217 347.127 331.518 351.734C317.037 356.122 302.337 358.316 287.418 358.316C269.208 358.316 256.592 355.025 249.571 348.443ZM276.558 233.258C276.558 248.396 276.338 278.784 275.899 324.419C282.481 331.879 290.928 335.608 301.24 335.608C314.843 335.608 328.007 330.014 340.732 318.824C353.458 307.415 359.82 295.239 359.82 282.294C359.82 266.278 354.445 253.772 343.694 244.776C332.944 235.781 319.121 231.283 302.228 231.283C291.038 231.283 282.481 231.941 276.558 233.258ZM275.899 208.904L296.304 208.575C310.345 208.575 321.096 204.516 328.556 196.398C336.235 188.061 340.074 178.188 340.074 166.779C340.074 155.151 336.235 145.168 328.556 136.831C320.877 128.274 310.236 123.996 296.633 123.996C290.49 123.996 283.249 125.312 274.912 127.945C275.351 141.329 275.57 157.894 275.57 177.64C275.79 197.386 275.899 207.807 275.899 208.904Z" fill="#BBBBBB"/>
</svg>
