<svg width="128" height="128" viewBox="0 0 128 128" fill="none" xmlns="http://www.w3.org/2000/svg">
<path d="M69.77 112.75C69.77 112.75 63.08 117.38 62.45 118.19C61.82 118.99 61.55 119.93 62.77 120.3C63.99 120.67 65.93 120.16 65.93 120.16C65.93 120.16 64.96 121.6 67.24 122.13C68.77 122.48 71.74 120.93 71.74 120.93C71.74 120.93 71.25 122.3 73.29 122.58C76.23 122.99 81.31 116.68 82.35 114.71C83.39 112.74 82.91 111.05 82.91 111.05L69.77 112.75ZM52.17 108.59C52.17 108.59 43.96 113.51 43.3 113.79C42.64 114.07 40.08 115.5 41.05 117.07C41.8 118.29 44.71 117.35 44.71 117.35C44.71 117.35 44.08 118.72 45.74 119.51C47.41 120.3 50.9 118.38 50.9 118.38C50.9 118.38 50.51 120.09 52.78 120.35C55.69 120.69 62.17 111.81 62.17 111.81L52.17 108.59Z" fill="#ADADB7"/>
<path d="M84.97 38.37C84.97 38.37 86.1 20.77 77.51 12.61C68.92 4.45 58.36 5.38 55.12 6.23C51.88 7.07 46.24 9.11 42.26 14.86C37 22.46 39.16 29.59 36.72 34.19C34.8 37.82 29.49 48.22 28.65 55.68C27.81 63.14 27.24 77.27 27.66 82.29C28.07 87.2 28.27 91.53 30.9 95.52C32.47 97.91 35.6 97.96 36.67 96.65C37.3 95.88 37.09 94.75 37.09 94.75C37.09 94.75 41.37 101.13 43.1 103.27C45.92 106.74 51.77 112.33 61.31 113.97C73.89 116.13 94.53 109.47 94.53 109.47C94.53 109.47 96.3 110.67 99.11 110.81C100.54 110.88 102.21 109.47 102 108.06C101.79 106.65 100.17 104.68 99.82 103.91C99.47 103.14 100.55 81.6 97.17 66.96C93.79 52.32 87.5 40.34 84.97 38.37Z" fill="#4D4D4D"/>
<path d="M39.78 38.37C39.78 38.37 33.68 44.71 33.12 53.43C32.65 60.76 32.6 74.12 36.83 86.09C41.06 98.06 49.08 107.96 60.76 110.3C73.4 112.84 87.41 108.38 87.84 108.24C88.26 108.1 85.31 104.96 83.24 101.86C81.67 99.5 79.63 94.26 79.63 94.26C79.63 94.26 79.77 98.3 77.17 98.62C75.19 98.87 72.38 96.93 70.27 92.28C68.16 87.63 65.29 75.01 64.5 64.62C63.8 55.33 64.75 49.35 65.7 46.74C66.27 45.17 67.42 44.1 67.42 44.1C67.42 44.1 70.62 47.99 75.69 46.67C80.57 45.4 81.79 40.05 80.95 35.69C79.94 30.48 77.85 24.85 70.77 26.4C62.73 28.16 65.53 38.54 65.53 38.54C65.53 38.54 59.79 43.22 51.77 42.38C43.72 41.54 39.78 38.37 39.78 38.37Z" fill="url(#paint0_linear_203_2)"/>
<path d="M47.1 18.15C47.1 18.15 46.13 14.53 43.67 14.07C38.93 13.18 32.36 16.28 29.69 17.92C27.53 19.25 24.57 22.14 25.47 23.55C26.37 24.96 31.24 23.6 35.42 24.3C38.31 24.79 42.32 25.99 44.01 25.94C45.36 25.9 47.11 23.59 47.34 22.51C47.57 21.43 47.57 19.51 47.1 18.15Z" fill="#ADADB7"/>
<path d="M47.33 18.52C47.33 18.52 43.34 20.26 34.94 20.82C31.38 21.06 25.37 22.79 25.37 22.79C25.37 22.79 24.76 23.4 25.75 23.92C26.74 24.44 31.76 23.01 34.85 22.84C39.87 22.56 49.07 21.9 49.07 21.9L47.33 18.52Z" fill="#4D4D4D"/>
<path d="M63.76 22C63.85 24.15 61.76 25.99 59.88 25.68C57.51 25.28 56.35 23.02 56.6 20.78C56.85 18.54 58.89 17.36 60.78 17.57C62.68 17.77 63.67 19.75 63.76 22Z" fill="#000409"/>
<defs>
<linearGradient id="paint0_linear_203_2" x1="55.562" y1="105.748" x2="69.459" y2="34.253" gradientUnits="userSpaceOnUse">
<stop offset="0.362" stop-color="white"/>
<stop offset="0.412" stop-color="#FFFAEF"/>
<stop offset="0.51" stop-color="#FFEDC7"/>
<stop offset="0.646" stop-color="#FFD985"/>
<stop offset="0.788" stop-color="#FFC139"/>
<stop offset="0.817" stop-color="#FFB92E"/>
<stop offset="0.944" stop-color="#FF9700"/>
</linearGradient>
</defs>
</svg>
